<?xml version="1.0" encoding="UTF-8" standalone="no"?>
<!DOCTYPE svg PUBLIC "-//W3C//DTD SVG 1.1//EN"
 "http://www.w3.org/Graphics/SVG/1.1/DTD/svg11.dtd">
<!-- Generated by graphviz version 2.26.0 (20091210.2329)
 -->
<!-- Title: snakemake_dag Pages: 1 -->
<svg width="446pt" height="428pt"
 viewBox="0.00 0.00 446.00 428.00" xmlns="http://www.w3.org/2000/svg" xmlns:xlink="http://www.w3.org/1999/xlink">
<g id="graph1" class="graph" transform="scale(1 1) rotate(0) translate(4 424)">
<title>snakemake_dag</title>
<polygon fill="white" stroke="white" points="-4,5 -4,-424 443,-424 443,5 -4,5"/>
<!-- 0 -->
<g id="node1" class="node"><title>0</title>
<polyline fill="none" stroke="#d8a456" stroke-width="2" points="234,-36 204,-36 "/>
<path fill="none" stroke="#d8a456" stroke-width="2" d="M204,-36C198,-36 192,-30 192,-24"/>
<polyline fill="none" stroke="#d8a456" stroke-width="2" points="192,-24 192,-12 "/>
<path fill="none" stroke="#d8a456" stroke-width="2" d="M192,-12C192,-6 198,-1.61846e-14 204,-1.46056e-14"/>
<polyline fill="none" stroke="#d8a456" stroke-width="2" points="204,-1.46056e-14 234,-6.71068e-15 "/>
<path fill="none" stroke="#d8a456" stroke-width="2" d="M234,-6.71068e-15C240,-5.1317e-15 246,-6 246,-12"/>
<polyline fill="none" stroke="#d8a456" stroke-width="2" points="246,-12 246,-24 "/>
<path fill="none" stroke="#d8a456" stroke-width="2" d="M246,-24C246,-30 240,-36 234,-36"/>
<text text-anchor="middle" x="219" y="-15.5" font-family="sans" font-size="10.00">all</text>
</g>
<!-- 1 -->
<g id="node2" class="node"><title>1</title>
<polyline fill="none" stroke="#78d856" stroke-width="2" points="253,-108 185,-108 "/>
<path fill="none" stroke="#78d856" stroke-width="2" d="M185,-108C179,-108 173,-102 173,-96"/>
<polyline fill="none" stroke="#78d856" stroke-width="2" points="173,-96 173,-84 "/>
<path fill="none" stroke="#78d856" stroke-width="2" d="M173,-84C173,-78 179,-72 185,-72"/>
<polyline fill="none" stroke="#78d856" stroke-width="2" points="185,-72 253,-72 "/>
<path fill="none" stroke="#78d856" stroke-width="2" d="M253,-72C259,-72 265,-78 265,-84"/>
<polyline fill="none" stroke="#78d856" stroke-width="2" points="265,-84 265,-96 "/>
<path fill="none" stroke="#78d856" stroke-width="2" d="M265,-96C265,-102 259,-108 253,-108"/>
<text text-anchor="middle" x="219" y="-87.5" font-family="sans" font-size="10.00">markduplicates</text>
</g>
<!-- 1&#45;&gt;0 -->
<g id="edge2" class="edge"><title>1&#45;&gt;0</title>
<path fill="none" stroke="grey" stroke-width="2" d="M219,-71.8314C219,-64.131 219,-54.9743 219,-46.4166"/>
<polygon fill="grey" stroke="grey" points="222.5,-46.4132 219,-36.4133 215.5,-46.4133 222.5,-46.4132"/>
</g>
<!-- 2 -->
<g id="node3" class="node"><title>2</title>
<polyline fill="none" stroke="#56d87b" stroke-width="2" points="198,-180 12,-180 "/>
<path fill="none" stroke="#56d87b" stroke-width="2" d="M12,-180C6,-180 8.28967e-14,-174 6.63173e-14,-168"/>
<polyline fill="none" stroke="#56d87b" stroke-width="2" points="6.63173e-14,-168 3.31587e-14,-156 "/>
<path fill="none" stroke="#56d87b" stroke-width="2" d="M3.31587e-14,-156C1.65793e-14,-150 6,-144 12,-144"/>
<polyline fill="none" stroke="#56d87b" stroke-width="2" points="12,-144 198,-144 "/>
<path fill="none" stroke="#56d87b" stroke-width="2" d="M198,-144C204,-144 210,-150 210,-156"/>
<polyline fill="none" stroke="#56d87b" stroke-width="2" points="210,-156 210,-168 "/>
<path fill="none" stroke="#56d87b" stroke-width="2" d="M210,-168C210,-174 204,-180 198,-180"/>
<text text-anchor="middle" x="105" y="-159.5" font-family="sans" font-size="10.00">samtofastq_bwa_mergebamalignment</text>
</g>
<!-- 2&#45;&gt;1 -->
<g id="edge4" class="edge"><title>2&#45;&gt;1</title>
<path fill="none" stroke="grey" stroke-width="2" d="M133.767,-143.831C148.213,-134.707 165.897,-123.539 181.404,-113.745"/>
<polygon fill="grey" stroke="grey" points="183.656,-116.462 190.242,-108.163 179.918,-110.544 183.656,-116.462"/>
</g>
<!-- 3 -->
<g id="node4" class="node"><title>3</title>
<polyline fill="none" stroke="#56d87b" stroke-width="2" points="426,-180 240,-180 "/>
<path fill="none" stroke="#56d87b" stroke-width="2" d="M240,-180C234,-180 228,-174 228,-168"/>
<polyline fill="none" stroke="#56d87b" stroke-width="2" points="228,-168 228,-156 "/>
<path fill="none" stroke="#56d87b" stroke-width="2" d="M228,-156C228,-150 234,-144 240,-144"/>
<polyline fill="none" stroke="#56d87b" stroke-width="2" points="240,-144 426,-144 "/>
<path fill="none" stroke="#56d87b" stroke-width="2" d="M426,-144C432,-144 438,-150 438,-156"/>
<polyline fill="none" stroke="#56d87b" stroke-width="2" points="438,-156 438,-168 "/>
<path fill="none" stroke="#56d87b" stroke-width="2" d="M438,-168C438,-174 432,-180 426,-180"/>
<text text-anchor="middle" x="333" y="-159.5" font-family="sans" font-size="10.00">samtofastq_bwa_mergebamalignment</text>
</g>
<!-- 3&#45;&gt;1 -->
<g id="edge6" class="edge"><title>3&#45;&gt;1</title>
<path fill="none" stroke="grey" stroke-width="2" d="M304.233,-143.831C289.787,-134.707 272.103,-123.539 256.596,-113.745"/>
<polygon fill="grey" stroke="grey" points="258.082,-110.544 247.758,-108.163 254.344,-116.462 258.082,-110.544"/>
</g>
<!-- 4 -->
<g id="node5" class="node"><title>4</title>
<polyline fill="none" stroke="#56d8c9" stroke-width="2" stroke-dasharray="5,2" points="188,-263.5 40,-263.5 "/>
<path fill="none" stroke="#56d8c9" stroke-width="2" stroke-dasharray="5,2" d="M40,-263.5C34,-263.5 28,-257.5 28,-251.5"/>
<polyline fill="none" stroke="#56d8c9" stroke-width="2" stroke-dasharray="5,2" points="28,-251.5 28,-228.5 "/>
<path fill="none" stroke="#56d8c9" stroke-width="2" stroke-dasharray="5,2" d="M28,-228.5C28,-222.5 34,-216.5 40,-216.5"/>
<polyline fill="none" stroke="#56d8c9" stroke-width="2" stroke-dasharray="5,2" points="40,-216.5 188,-216.5 "/>
<path fill="none" stroke="#56d8c9" stroke-width="2" stroke-dasharray="5,2" d="M188,-216.5C194,-216.5 200,-222.5 200,-228.5"/>
<polyline fill="none" stroke="#56d8c9" stroke-width="2" stroke-dasharray="5,2" points="200,-228.5 200,-251.5 "/>
<path fill="none" stroke="#56d8c9" stroke-width="2" stroke-dasharray="5,2" d="M200,-251.5C200,-257.5 194,-263.5 188,-263.5"/>
<text text-anchor="middle" x="114" y="-250.5" font-family="sans" font-size="10.00">markadapters</text>
<text text-anchor="middle" x="114" y="-237.5" font-family="sans" font-size="10.00">readgroup: H22LK.4</text>
<text text-anchor="middle" x="114" y="-224.5" font-family="sans" font-size="10.00">sample_id: TCGA&#45;FG&#45;A4MT&#45;02A</text>
</g>
<!-- 4&#45;&gt;2 -->
<g id="edge8" class="edge"><title>4&#45;&gt;2</title>
<path fill="none" stroke="grey" stroke-width="2" d="M111.251,-216.174C110.32,-208.109 109.271,-199.02 108.303,-190.622"/>
<polygon fill="grey" stroke="grey" points="111.756,-190.018 107.133,-180.485 104.802,-190.82 111.756,-190.018"/>
</g>
<!-- 5 -->
<g id="node6" class="node"><title>5</title>
<polyline fill="none" stroke="#56d8c9" stroke-width="2" stroke-dasharray="5,2" points="397,-263.5 249,-263.5 "/>
<path fill="none" stroke="#56d8c9" stroke-width="2" stroke-dasharray="5,2" d="M249,-263.5C243,-263.5 237,-257.5 237,-251.5"/>
<polyline fill="none" stroke="#56d8c9" stroke-width="2" stroke-dasharray="5,2" points="237,-251.5 237,-228.5 "/>
<path fill="none" stroke="#56d8c9" stroke-width="2" stroke-dasharray="5,2" d="M237,-228.5C237,-222.5 243,-216.5 249,-216.5"/>
<polyline fill="none" stroke="#56d8c9" stroke-width="2" stroke-dasharray="5,2" points="249,-216.5 397,-216.5 "/>
<path fill="none" stroke="#56d8c9" stroke-width="2" stroke-dasharray="5,2" d="M397,-216.5C403,-216.5 409,-222.5 409,-228.5"/>
<polyline fill="none" stroke="#56d8c9" stroke-width="2" stroke-dasharray="5,2" points="409,-228.5 409,-251.5 "/>
<path fill="none" stroke="#56d8c9" stroke-width="2" stroke-dasharray="5,2" d="M409,-251.5C409,-257.5 403,-263.5 397,-263.5"/>
<text text-anchor="middle" x="323" y="-250.5" font-family="sans" font-size="10.00">markadapters</text>
<text text-anchor="middle" x="323" y="-237.5" font-family="sans" font-size="10.00">readgroup: H22LK.3</text>
<text text-anchor="middle" x="323" y="-224.5" font-family="sans" font-size="10.00">sample_id: TCGA&#45;FG&#45;A4MT&#45;02A</text>
</g>
<!-- 5&#45;&gt;3 -->
<g id="edge10" class="edge"><title>5&#45;&gt;3</title>
<path fill="none" stroke="grey" stroke-width="2" d="M326.055,-216.174C327.089,-208.109 328.254,-199.02 329.33,-190.622"/>
<polygon fill="grey" stroke="grey" points="332.83,-190.849 330.63,-180.485 325.887,-189.959 332.83,-190.849"/>
</g>
<!-- 6 -->
<g id="node7" class="node"><title>6</title>
<polyline fill="none" stroke="#d85656" stroke-width="2" stroke-dasharray="5,2" points="232,-336 186,-336 "/>
<path fill="none" stroke="#d85656" stroke-width="2" stroke-dasharray="5,2" d="M186,-336C180,-336 174,-330 174,-324"/>
<polyline fill="none" stroke="#d85656" stroke-width="2" stroke-dasharray="5,2" points="174,-324 174,-312 "/>
<path fill="none" stroke="#d85656" stroke-width="2" stroke-dasharray="5,2" d="M174,-312C174,-306 180,-300 186,-300"/>
<polyline fill="none" stroke="#d85656" stroke-width="2" stroke-dasharray="5,2" points="186,-300 232,-300 "/>
<path fill="none" stroke="#d85656" stroke-width="2" stroke-dasharray="5,2" d="M232,-300C238,-300 244,-306 244,-312"/>
<polyline fill="none" stroke="#d85656" stroke-width="2" stroke-dasharray="5,2" points="244,-312 244,-324 "/>
<path fill="none" stroke="#d85656" stroke-width="2" stroke-dasharray="5,2" d="M244,-324C244,-330 238,-336 232,-336"/>
<text text-anchor="middle" x="209" y="-315.5" font-family="sans" font-size="10.00">revertsam</text>
</g>
<!-- 6&#45;&gt;4 -->
<g id="edge12" class="edge"><title>6&#45;&gt;4</title>
<path fill="none" stroke="grey" stroke-width="2" d="M186.966,-299.909C176.175,-291.049 162.894,-280.145 150.634,-270.078"/>
<polygon fill="grey" stroke="grey" points="152.711,-267.255 142.761,-263.614 148.269,-272.665 152.711,-267.255"/>
</g>
<!-- 6&#45;&gt;5 -->
<g id="edge14" class="edge"><title>6&#45;&gt;5</title>
<path fill="none" stroke="grey" stroke-width="2" d="M235.44,-299.909C248.637,-290.88 264.935,-279.729 279.879,-269.504"/>
<polygon fill="grey" stroke="grey" points="282.21,-272.15 288.487,-263.614 278.257,-266.373 282.21,-272.15"/>
</g>
<!-- 7 -->
<g id="node8" class="node"><title>7</title>
<polyline fill="none" stroke="#c6d856" stroke-width="2" stroke-dasharray="5,2" points="342,-419.5 76,-419.5 "/>
<path fill="none" stroke="#c6d856" stroke-width="2" stroke-dasharray="5,2" d="M76,-419.5C70,-419.5 64,-413.5 64,-407.5"/>
<polyline fill="none" stroke="#c6d856" stroke-width="2" stroke-dasharray="5,2" points="64,-407.5 64,-384.5 "/>
<path fill="none" stroke="#c6d856" stroke-width="2" stroke-dasharray="5,2" d="M64,-384.5C64,-378.5 70,-372.5 76,-372.5"/>
<polyline fill="none" stroke="#c6d856" stroke-width="2" stroke-dasharray="5,2" points="76,-372.5 342,-372.5 "/>
<path fill="none" stroke="#c6d856" stroke-width="2" stroke-dasharray="5,2" d="M342,-372.5C348,-372.5 354,-378.5 354,-384.5"/>
<polyline fill="none" stroke="#c6d856" stroke-width="2" stroke-dasharray="5,2" points="354,-384.5 354,-407.5 "/>
<path fill="none" stroke="#c6d856" stroke-width="2" stroke-dasharray="5,2" d="M354,-407.5C354,-413.5 348,-419.5 342,-419.5"/>
<text text-anchor="middle" x="209" y="-406.5" font-family="sans" font-size="10.00">download</text>
<text text-anchor="middle" x="209" y="-393.5" font-family="sans" font-size="10.00">filename: G35154.TCGA&#45;FG&#45;A4MT&#45;02A&#45;11D&#45;A29Q&#45;08.3</text>
<text text-anchor="middle" x="209" y="-380.5" font-family="sans" font-size="10.00">uuid: c0b259dd&#45;e27a&#45;46af&#45;a639&#45;f80a0e1e7fff</text>
</g>
<!-- 7&#45;&gt;6 -->
<g id="edge16" class="edge"><title>7&#45;&gt;6</title>
<path fill="none" stroke="grey" stroke-width="2" d="M209,-372.174C209,-364.109 209,-355.02 209,-346.622"/>
<polygon fill="grey" stroke="grey" points="212.5,-346.485 209,-336.485 205.5,-346.485 212.5,-346.485"/>
</g>
</g>
</svg>
