<?xml version="1.0" encoding="UTF-8" standalone="no"?>
<!DOCTYPE svg PUBLIC "-//W3C//DTD SVG 1.1//EN"
 "http://www.w3.org/Graphics/SVG/1.1/DTD/svg11.dtd">
<!-- Generated by graphviz version 2.26.0 (20091210.2329)
 -->
<!-- Title: snakemake_dag Pages: 1 -->
<svg width="258pt" height="692pt"
 viewBox="0.00 0.00 258.00 692.00" xmlns="http://www.w3.org/2000/svg" xmlns:xlink="http://www.w3.org/1999/xlink">
<g id="graph1" class="graph" transform="scale(1 1) rotate(0) translate(4 688)">
<title>snakemake_dag</title>
<polygon fill="white" stroke="white" points="-4,5 -4,-688 255,-688 255,5 -4,5"/>
<!-- 0 -->
<g id="node1" class="node"><title>0</title>
<polyline fill="none" stroke="#d87d56" stroke-width="2" points="92,-36 62,-36 "/>
<path fill="none" stroke="#d87d56" stroke-width="2" d="M62,-36C56,-36 50,-30 50,-24"/>
<polyline fill="none" stroke="#d87d56" stroke-width="2" points="50,-24 50,-12 "/>
<path fill="none" stroke="#d87d56" stroke-width="2" d="M50,-12C50,-6 56,-1.61846e-14 62,-1.46056e-14"/>
<polyline fill="none" stroke="#d87d56" stroke-width="2" points="62,-1.46056e-14 92,-6.71068e-15 "/>
<path fill="none" stroke="#d87d56" stroke-width="2" d="M92,-6.71068e-15C98,-5.1317e-15 104,-6 104,-12"/>
<polyline fill="none" stroke="#d87d56" stroke-width="2" points="104,-12 104,-24 "/>
<path fill="none" stroke="#d87d56" stroke-width="2" d="M104,-24C104,-30 98,-36 92,-36"/>
<text text-anchor="middle" x="77" y="-15.5" font-family="sans" font-size="10.00">all</text>
</g>
<!-- 1 -->
<g id="node2" class="node"><title>1</title>
<polyline fill="none" stroke="#c6d856" stroke-width="2" points="92,-108 62,-108 "/>
<path fill="none" stroke="#c6d856" stroke-width="2" d="M62,-108C56,-108 50,-102 50,-96"/>
<polyline fill="none" stroke="#c6d856" stroke-width="2" points="50,-96 50,-84 "/>
<path fill="none" stroke="#c6d856" stroke-width="2" d="M50,-84C50,-78 56,-72 62,-72"/>
<polyline fill="none" stroke="#c6d856" stroke-width="2" points="62,-72 92,-72 "/>
<path fill="none" stroke="#c6d856" stroke-width="2" d="M92,-72C98,-72 104,-78 104,-84"/>
<polyline fill="none" stroke="#c6d856" stroke-width="2" points="104,-84 104,-96 "/>
<path fill="none" stroke="#c6d856" stroke-width="2" d="M104,-96C104,-102 98,-108 92,-108"/>
<text text-anchor="middle" x="77" y="-87.5" font-family="sans" font-size="10.00">multiqc</text>
</g>
<!-- 1&#45;&gt;0 -->
<g id="edge2" class="edge"><title>1&#45;&gt;0</title>
<path fill="none" stroke="grey" stroke-width="2" d="M77,-71.8314C77,-64.131 77,-54.9743 77,-46.4166"/>
<polygon fill="grey" stroke="grey" points="80.5001,-46.4132 77,-36.4133 73.5001,-46.4133 80.5001,-46.4132"/>
</g>
<!-- 2 -->
<g id="node3" class="node"><title>2</title>
<polyline fill="none" stroke="#9fd856" stroke-width="2" points="49,-540 19,-540 "/>
<path fill="none" stroke="#9fd856" stroke-width="2" d="M19,-540C13,-540 7,-534 7,-528"/>
<polyline fill="none" stroke="#9fd856" stroke-width="2" points="7,-528 7,-516 "/>
<path fill="none" stroke="#9fd856" stroke-width="2" d="M7,-516C7,-510 13,-504 19,-504"/>
<polyline fill="none" stroke="#9fd856" stroke-width="2" points="19,-504 49,-504 "/>
<path fill="none" stroke="#9fd856" stroke-width="2" d="M49,-504C55,-504 61,-510 61,-516"/>
<polyline fill="none" stroke="#9fd856" stroke-width="2" points="61,-516 61,-528 "/>
<path fill="none" stroke="#9fd856" stroke-width="2" d="M61,-528C61,-534 55,-540 49,-540"/>
<text text-anchor="middle" x="34" y="-519.5" font-family="sans" font-size="10.00">fastqc</text>
</g>
<!-- 2&#45;&gt;1 -->
<g id="edge6" class="edge"><title>2&#45;&gt;1</title>
<path fill="none" stroke="grey" stroke-width="2" d="M29.4416,-503.95C22.9977,-476.806 12,-423.775 12,-378 12,-378 12,-378 12,-234 12,-193.118 12.9675,-180.69 31,-144 35.9399,-133.949 43.1747,-124.225 50.4507,-115.863"/>
<polygon fill="grey" stroke="grey" points="53.2023,-118.041 57.3657,-108.298 48.0355,-113.318 53.2023,-118.041"/>
</g>
<!-- 3 -->
<g id="node4" class="node"><title>3</title>
<polyline fill="none" stroke="#56c9d8" stroke-width="2" points="198,-180 144,-180 "/>
<path fill="none" stroke="#56c9d8" stroke-width="2" d="M144,-180C138,-180 132,-174 132,-168"/>
<polyline fill="none" stroke="#56c9d8" stroke-width="2" points="132,-168 132,-156 "/>
<path fill="none" stroke="#56c9d8" stroke-width="2" d="M132,-156C132,-150 138,-144 144,-144"/>
<polyline fill="none" stroke="#56c9d8" stroke-width="2" points="144,-144 198,-144 "/>
<path fill="none" stroke="#56c9d8" stroke-width="2" d="M198,-144C204,-144 210,-150 210,-156"/>
<polyline fill="none" stroke="#56c9d8" stroke-width="2" points="210,-156 210,-168 "/>
<path fill="none" stroke="#56c9d8" stroke-width="2" d="M210,-168C210,-174 204,-180 198,-180"/>
<text text-anchor="middle" x="171" y="-159.5" font-family="sans" font-size="10.00">validatebam</text>
</g>
<!-- 3&#45;&gt;1 -->
<g id="edge4" class="edge"><title>3&#45;&gt;1</title>
<path fill="none" stroke="grey" stroke-width="2" d="M147.28,-143.831C135.591,-134.878 121.331,-123.956 108.719,-114.295"/>
<polygon fill="grey" stroke="grey" points="110.78,-111.465 100.713,-108.163 106.523,-117.022 110.78,-111.465"/>
</g>
<!-- 4 -->
<g id="node5" class="node"><title>4</title>
<polyline fill="none" stroke="#567bd8" stroke-width="2" points="102,-180 52,-180 "/>
<path fill="none" stroke="#567bd8" stroke-width="2" d="M52,-180C46,-180 40,-174 40,-168"/>
<polyline fill="none" stroke="#567bd8" stroke-width="2" points="40,-168 40,-156 "/>
<path fill="none" stroke="#567bd8" stroke-width="2" d="M40,-156C40,-150 46,-144 52,-144"/>
<polyline fill="none" stroke="#567bd8" stroke-width="2" points="52,-144 102,-144 "/>
<path fill="none" stroke="#567bd8" stroke-width="2" d="M102,-144C108,-144 114,-150 114,-156"/>
<polyline fill="none" stroke="#567bd8" stroke-width="2" points="114,-156 114,-168 "/>
<path fill="none" stroke="#567bd8" stroke-width="2" d="M114,-168C114,-174 108,-180 102,-180"/>
<text text-anchor="middle" x="77" y="-159.5" font-family="sans" font-size="10.00">wgsmetrics</text>
</g>
<!-- 4&#45;&gt;1 -->
<g id="edge8" class="edge"><title>4&#45;&gt;1</title>
<path fill="none" stroke="grey" stroke-width="2" d="M77,-143.831C77,-136.131 77,-126.974 77,-118.417"/>
<polygon fill="grey" stroke="grey" points="80.5001,-118.413 77,-108.413 73.5001,-118.413 80.5001,-118.413"/>
</g>
<!-- 5 -->
<g id="node6" class="node"><title>5</title>
<polyline fill="none" stroke="#56d8a2" stroke-width="2" points="58,-612 12,-612 "/>
<path fill="none" stroke="#56d8a2" stroke-width="2" d="M12,-612C6,-612 2.96059e-14,-606 2.36848e-14,-600"/>
<polyline fill="none" stroke="#56d8a2" stroke-width="2" points="2.36848e-14,-600 1.18424e-14,-588 "/>
<path fill="none" stroke="#56d8a2" stroke-width="2" d="M1.18424e-14,-588C5.92119e-15,-582 6,-576 12,-576"/>
<polyline fill="none" stroke="#56d8a2" stroke-width="2" points="12,-576 58,-576 "/>
<path fill="none" stroke="#56d8a2" stroke-width="2" d="M58,-576C64,-576 70,-582 70,-588"/>
<polyline fill="none" stroke="#56d8a2" stroke-width="2" points="70,-588 70,-600 "/>
<path fill="none" stroke="#56d8a2" stroke-width="2" d="M70,-600C70,-606 64,-612 58,-612"/>
<text text-anchor="middle" x="35" y="-591.5" font-family="sans" font-size="10.00">revertsam</text>
</g>
<!-- 5&#45;&gt;2 -->
<g id="edge10" class="edge"><title>5&#45;&gt;2</title>
<path fill="none" stroke="grey" stroke-width="2" d="M34.7477,-575.831C34.6407,-568.131 34.5135,-558.974 34.3947,-550.417"/>
<polygon fill="grey" stroke="grey" points="37.8944,-550.364 34.2557,-540.413 30.8951,-550.461 37.8944,-550.364"/>
</g>
<!-- 12 -->
<g id="node13" class="node"><title>12</title>
<polyline fill="none" stroke="#78d856" stroke-width="2" points="153,-540 91,-540 "/>
<path fill="none" stroke="#78d856" stroke-width="2" d="M91,-540C85,-540 79,-534 79,-528"/>
<polyline fill="none" stroke="#78d856" stroke-width="2" points="79,-528 79,-516 "/>
<path fill="none" stroke="#78d856" stroke-width="2" d="M79,-516C79,-510 85,-504 91,-504"/>
<polyline fill="none" stroke="#78d856" stroke-width="2" points="91,-504 153,-504 "/>
<path fill="none" stroke="#78d856" stroke-width="2" d="M153,-504C159,-504 165,-510 165,-516"/>
<polyline fill="none" stroke="#78d856" stroke-width="2" points="165,-516 165,-528 "/>
<path fill="none" stroke="#78d856" stroke-width="2" d="M165,-528C165,-534 159,-540 153,-540"/>
<text text-anchor="middle" x="122" y="-519.5" font-family="sans" font-size="10.00">markadapters</text>
</g>
<!-- 5&#45;&gt;12 -->
<g id="edge30" class="edge"><title>5&#45;&gt;12</title>
<path fill="none" stroke="grey" stroke-width="2" d="M56.9538,-575.831C67.6695,-566.963 80.7189,-556.164 92.309,-546.572"/>
<polygon fill="grey" stroke="grey" points="94.5808,-549.235 100.053,-540.163 90.1178,-543.842 94.5808,-549.235"/>
</g>
<!-- 6 -->
<g id="node7" class="node"><title>6</title>
<polyline fill="none" stroke="#d8a456" stroke-width="2" points="164,-252 124,-252 "/>
<path fill="none" stroke="#d8a456" stroke-width="2" d="M124,-252C118,-252 112,-246 112,-240"/>
<polyline fill="none" stroke="#d8a456" stroke-width="2" points="112,-240 112,-228 "/>
<path fill="none" stroke="#d8a456" stroke-width="2" d="M112,-228C112,-222 118,-216 124,-216"/>
<polyline fill="none" stroke="#d8a456" stroke-width="2" points="124,-216 164,-216 "/>
<path fill="none" stroke="#d8a456" stroke-width="2" d="M164,-216C170,-216 176,-222 176,-228"/>
<polyline fill="none" stroke="#d8a456" stroke-width="2" points="176,-228 176,-240 "/>
<path fill="none" stroke="#d8a456" stroke-width="2" d="M176,-240C176,-246 170,-252 164,-252"/>
<text text-anchor="middle" x="144" y="-231.5" font-family="sans" font-size="10.00">applybqsr</text>
</g>
<!-- 6&#45;&gt;3 -->
<g id="edge14" class="edge"><title>6&#45;&gt;3</title>
<path fill="none" stroke="grey" stroke-width="2" d="M150.813,-215.831C153.764,-207.962 157.286,-198.571 160.555,-189.853"/>
<polygon fill="grey" stroke="grey" points="163.861,-191.006 164.095,-180.413 157.307,-188.548 163.861,-191.006"/>
</g>
<!-- 6&#45;&gt;4 -->
<g id="edge16" class="edge"><title>6&#45;&gt;4</title>
<path fill="none" stroke="grey" stroke-width="2" d="M127.093,-215.831C119.219,-207.369 109.708,-197.149 101.099,-187.897"/>
<polygon fill="grey" stroke="grey" points="103.509,-185.35 94.1346,-180.413 98.3847,-190.118 103.509,-185.35"/>
</g>
<!-- 7 -->
<g id="node8" class="node"><title>7</title>
<polyline fill="none" stroke="#56d8c9" stroke-width="2" points="138,-612 102,-612 "/>
<path fill="none" stroke="#56d8c9" stroke-width="2" d="M102,-612C96,-612 90,-606 90,-600"/>
<polyline fill="none" stroke="#56d8c9" stroke-width="2" points="90,-600 90,-588 "/>
<path fill="none" stroke="#56d8c9" stroke-width="2" d="M90,-588C90,-582 96,-576 102,-576"/>
<polyline fill="none" stroke="#56d8c9" stroke-width="2" points="102,-576 138,-576 "/>
<path fill="none" stroke="#56d8c9" stroke-width="2" d="M138,-576C144,-576 150,-582 150,-588"/>
<polyline fill="none" stroke="#56d8c9" stroke-width="2" points="150,-588 150,-600 "/>
<path fill="none" stroke="#56d8c9" stroke-width="2" d="M150,-600C150,-606 144,-612 138,-612"/>
<text text-anchor="middle" x="120" y="-591.5" font-family="sans" font-size="10.00">fq2ubam</text>
</g>
<!-- 7&#45;&gt;2 -->
<g id="edge12" class="edge"><title>7&#45;&gt;2</title>
<path fill="none" stroke="grey" stroke-width="2" d="M98.2986,-575.831C87.8079,-567.048 75.0545,-556.371 63.6806,-546.849"/>
<polygon fill="grey" stroke="grey" points="65.6089,-543.899 55.6945,-540.163 61.1153,-549.266 65.6089,-543.899"/>
</g>
<!-- 7&#45;&gt;12 -->
<g id="edge32" class="edge"><title>7&#45;&gt;12</title>
<path fill="none" stroke="grey" stroke-width="2" d="M120.505,-575.831C120.719,-568.131 120.973,-558.974 121.211,-550.417"/>
<polygon fill="grey" stroke="grey" points="124.709,-550.507 121.489,-540.413 117.712,-550.312 124.709,-550.507"/>
</g>
<!-- 8 -->
<g id="node9" class="node"><title>8</title>
<polyline fill="none" stroke="#56a2d8" stroke-width="2" points="54,-684 16,-684 "/>
<path fill="none" stroke="#56a2d8" stroke-width="2" d="M16,-684C10,-684 4,-678 4,-672"/>
<polyline fill="none" stroke="#56a2d8" stroke-width="2" points="4,-672 4,-660 "/>
<path fill="none" stroke="#56a2d8" stroke-width="2" d="M4,-660C4,-654 10,-648 16,-648"/>
<polyline fill="none" stroke="#56a2d8" stroke-width="2" points="16,-648 54,-648 "/>
<path fill="none" stroke="#56a2d8" stroke-width="2" d="M54,-648C60,-648 66,-654 66,-660"/>
<polyline fill="none" stroke="#56a2d8" stroke-width="2" points="66,-660 66,-672 "/>
<path fill="none" stroke="#56a2d8" stroke-width="2" d="M66,-672C66,-678 60,-684 54,-684"/>
<text text-anchor="middle" x="35" y="-663.5" font-family="sans" font-size="10.00">download</text>
</g>
<!-- 8&#45;&gt;5 -->
<g id="edge18" class="edge"><title>8&#45;&gt;5</title>
<path fill="none" stroke="grey" stroke-width="2" d="M35,-647.831C35,-640.131 35,-630.974 35,-622.417"/>
<polygon fill="grey" stroke="grey" points="38.5001,-622.413 35,-612.413 31.5001,-622.413 38.5001,-622.413"/>
</g>
<!-- 9 -->
<g id="node10" class="node"><title>9</title>
<polyline fill="none" stroke="#59d856" stroke-width="2" points="154,-324 80,-324 "/>
<path fill="none" stroke="#59d856" stroke-width="2" d="M80,-324C74,-324 68,-318 68,-312"/>
<polyline fill="none" stroke="#59d856" stroke-width="2" points="68,-312 68,-300 "/>
<path fill="none" stroke="#59d856" stroke-width="2" d="M68,-300C68,-294 74,-288 80,-288"/>
<polyline fill="none" stroke="#59d856" stroke-width="2" points="80,-288 154,-288 "/>
<path fill="none" stroke="#59d856" stroke-width="2" d="M154,-288C160,-288 166,-294 166,-300"/>
<polyline fill="none" stroke="#59d856" stroke-width="2" points="166,-300 166,-312 "/>
<path fill="none" stroke="#59d856" stroke-width="2" d="M166,-312C166,-318 160,-324 154,-324"/>
<text text-anchor="middle" x="117" y="-303.5" font-family="sans" font-size="10.00">baserecalibrator</text>
</g>
<!-- 9&#45;&gt;6 -->
<g id="edge20" class="edge"><title>9&#45;&gt;6</title>
<path fill="none" stroke="grey" stroke-width="2" d="M123.813,-287.831C126.764,-279.962 130.286,-270.571 133.555,-261.853"/>
<polygon fill="grey" stroke="grey" points="136.861,-263.006 137.095,-252.413 130.307,-260.548 136.861,-263.006"/>
</g>
<!-- 10 -->
<g id="node11" class="node"><title>10</title>
<polyline fill="none" stroke="#d8c356" stroke-width="2" points="179,-396 111,-396 "/>
<path fill="none" stroke="#d8c356" stroke-width="2" d="M111,-396C105,-396 99,-390 99,-384"/>
<polyline fill="none" stroke="#d8c356" stroke-width="2" points="99,-384 99,-372 "/>
<path fill="none" stroke="#d8c356" stroke-width="2" d="M99,-372C99,-366 105,-360 111,-360"/>
<polyline fill="none" stroke="#d8c356" stroke-width="2" points="111,-360 179,-360 "/>
<path fill="none" stroke="#d8c356" stroke-width="2" d="M179,-360C185,-360 191,-366 191,-372"/>
<polyline fill="none" stroke="#d8c356" stroke-width="2" points="191,-372 191,-384 "/>
<path fill="none" stroke="#d8c356" stroke-width="2" d="M191,-384C191,-390 185,-396 179,-396"/>
<text text-anchor="middle" x="145" y="-375.5" font-family="sans" font-size="10.00">markduplicates</text>
</g>
<!-- 10&#45;&gt;6 -->
<g id="edge22" class="edge"><title>10&#45;&gt;6</title>
<path fill="none" stroke="grey" stroke-width="2" d="M158.356,-359.514C164.751,-349.523 171.718,-336.666 175,-324 179.013,-308.512 179.122,-303.46 175,-288 172.505,-278.642 167.959,-269.22 163.104,-260.925"/>
<polygon fill="grey" stroke="grey" points="166.061,-259.052 157.796,-252.423 160.123,-262.759 166.061,-259.052"/>
</g>
<!-- 10&#45;&gt;9 -->
<g id="edge24" class="edge"><title>10&#45;&gt;9</title>
<path fill="none" stroke="grey" stroke-width="2" d="M137.934,-359.831C134.874,-351.962 131.222,-342.571 127.832,-333.853"/>
<polygon fill="grey" stroke="grey" points="131.047,-332.465 124.161,-324.413 124.523,-335.002 131.047,-332.465"/>
</g>
<!-- 11 -->
<g id="node12" class="node"><title>11</title>
<polyline fill="none" stroke="#56d87b" stroke-width="2" points="238,-468 52,-468 "/>
<path fill="none" stroke="#56d87b" stroke-width="2" d="M52,-468C46,-468 40,-462 40,-456"/>
<polyline fill="none" stroke="#56d87b" stroke-width="2" points="40,-456 40,-444 "/>
<path fill="none" stroke="#56d87b" stroke-width="2" d="M40,-444C40,-438 46,-432 52,-432"/>
<polyline fill="none" stroke="#56d87b" stroke-width="2" points="52,-432 238,-432 "/>
<path fill="none" stroke="#56d87b" stroke-width="2" d="M238,-432C244,-432 250,-438 250,-444"/>
<polyline fill="none" stroke="#56d87b" stroke-width="2" points="250,-444 250,-456 "/>
<path fill="none" stroke="#56d87b" stroke-width="2" d="M250,-456C250,-462 244,-468 238,-468"/>
<text text-anchor="middle" x="145" y="-447.5" font-family="sans" font-size="10.00">samtofastq_bwa_mergebamalignment</text>
</g>
<!-- 11&#45;&gt;10 -->
<g id="edge26" class="edge"><title>11&#45;&gt;10</title>
<path fill="none" stroke="grey" stroke-width="2" d="M145,-431.831C145,-424.131 145,-414.974 145,-406.417"/>
<polygon fill="grey" stroke="grey" points="148.5,-406.413 145,-396.413 141.5,-406.413 148.5,-406.413"/>
</g>
<!-- 12&#45;&gt;11 -->
<g id="edge28" class="edge"><title>12&#45;&gt;11</title>
<path fill="none" stroke="grey" stroke-width="2" d="M127.804,-503.831C130.291,-496.046 133.253,-486.773 136.013,-478.135"/>
<polygon fill="grey" stroke="grey" points="139.409,-479.004 139.118,-468.413 132.741,-476.874 139.409,-479.004"/>
</g>
</g>
</svg>
