<?xml version="1.0" encoding="UTF-8" standalone="no"?>
<!DOCTYPE svg PUBLIC "-//W3C//DTD SVG 1.1//EN"
 "http://www.w3.org/Graphics/SVG/1.1/DTD/svg11.dtd">
<!-- Generated by graphviz version 2.26.0 (20091210.2329)
 -->
<!-- Title: snakemake_dag Pages: 1 -->
<svg width="218pt" height="548pt"
 viewBox="0.00 0.00 218.00 548.00" xmlns="http://www.w3.org/2000/svg" xmlns:xlink="http://www.w3.org/1999/xlink">
<g id="graph1" class="graph" transform="scale(1 1) rotate(0) translate(4 544)">
<title>snakemake_dag</title>
<polygon fill="white" stroke="white" points="-4,5 -4,-544 215,-544 215,5 -4,5"/>
<!-- 0 -->
<g id="node1" class="node"><title>0</title>
<polyline fill="none" stroke="#d8cb56" stroke-width="2" points="120,-36 90,-36 "/>
<path fill="none" stroke="#d8cb56" stroke-width="2" d="M90,-36C84,-36 78,-30 78,-24"/>
<polyline fill="none" stroke="#d8cb56" stroke-width="2" points="78,-24 78,-12 "/>
<path fill="none" stroke="#d8cb56" stroke-width="2" d="M78,-12C78,-6 84,-1.61846e-14 90,-1.46056e-14"/>
<polyline fill="none" stroke="#d8cb56" stroke-width="2" points="90,-1.46056e-14 120,-6.71068e-15 "/>
<path fill="none" stroke="#d8cb56" stroke-width="2" d="M120,-6.71068e-15C126,-5.1317e-15 132,-6 132,-12"/>
<polyline fill="none" stroke="#d8cb56" stroke-width="2" points="132,-12 132,-24 "/>
<path fill="none" stroke="#d8cb56" stroke-width="2" d="M132,-24C132,-30 126,-36 120,-36"/>
<text text-anchor="middle" x="105" y="-15.5" font-family="sans" font-size="10.00">all</text>
</g>
<!-- 1 -->
<g id="node2" class="node"><title>1</title>
<polyline fill="none" stroke="#56d873" stroke-width="2" points="125,-108 85,-108 "/>
<path fill="none" stroke="#56d873" stroke-width="2" d="M85,-108C79,-108 73,-102 73,-96"/>
<polyline fill="none" stroke="#56d873" stroke-width="2" points="73,-96 73,-84 "/>
<path fill="none" stroke="#56d873" stroke-width="2" d="M73,-84C73,-78 79,-72 85,-72"/>
<polyline fill="none" stroke="#56d873" stroke-width="2" points="85,-72 125,-72 "/>
<path fill="none" stroke="#56d873" stroke-width="2" d="M125,-72C131,-72 137,-78 137,-84"/>
<polyline fill="none" stroke="#56d873" stroke-width="2" points="137,-84 137,-96 "/>
<path fill="none" stroke="#56d873" stroke-width="2" d="M137,-96C137,-102 131,-108 125,-108"/>
<text text-anchor="middle" x="105" y="-87.5" font-family="sans" font-size="10.00">applybqsr</text>
</g>
<!-- 1&#45;&gt;0 -->
<g id="edge2" class="edge"><title>1&#45;&gt;0</title>
<path fill="none" stroke="grey" stroke-width="2" d="M105,-71.8314C105,-64.131 105,-54.9743 105,-46.4166"/>
<polygon fill="grey" stroke="grey" points="108.5,-46.4132 105,-36.4133 101.5,-46.4133 108.5,-46.4132"/>
</g>
<!-- 2 -->
<g id="node3" class="node"><title>2</title>
<polyline fill="none" stroke="#56d8a9" stroke-width="2" points="181,-180 107,-180 "/>
<path fill="none" stroke="#56d8a9" stroke-width="2" d="M107,-180C101,-180 95,-174 95,-168"/>
<polyline fill="none" stroke="#56d8a9" stroke-width="2" points="95,-168 95,-156 "/>
<path fill="none" stroke="#56d8a9" stroke-width="2" d="M95,-156C95,-150 101,-144 107,-144"/>
<polyline fill="none" stroke="#56d8a9" stroke-width="2" points="107,-144 181,-144 "/>
<path fill="none" stroke="#56d8a9" stroke-width="2" d="M181,-144C187,-144 193,-150 193,-156"/>
<polyline fill="none" stroke="#56d8a9" stroke-width="2" points="193,-156 193,-168 "/>
<path fill="none" stroke="#56d8a9" stroke-width="2" d="M193,-168C193,-174 187,-180 181,-180"/>
<text text-anchor="middle" x="144" y="-159.5" font-family="sans" font-size="10.00">baserecalibrator</text>
</g>
<!-- 2&#45;&gt;1 -->
<g id="edge4" class="edge"><title>2&#45;&gt;1</title>
<path fill="none" stroke="grey" stroke-width="2" d="M134.159,-143.831C129.804,-135.792 124.59,-126.167 119.783,-117.292"/>
<polygon fill="grey" stroke="grey" points="122.814,-115.539 114.974,-108.413 116.659,-118.873 122.814,-115.539"/>
</g>
<!-- 3 -->
<g id="node4" class="node"><title>3</title>
<polyline fill="none" stroke="#afd856" stroke-width="2" points="139,-252 71,-252 "/>
<path fill="none" stroke="#afd856" stroke-width="2" d="M71,-252C65,-252 59,-246 59,-240"/>
<polyline fill="none" stroke="#afd856" stroke-width="2" points="59,-240 59,-228 "/>
<path fill="none" stroke="#afd856" stroke-width="2" d="M59,-228C59,-222 65,-216 71,-216"/>
<polyline fill="none" stroke="#afd856" stroke-width="2" points="71,-216 139,-216 "/>
<path fill="none" stroke="#afd856" stroke-width="2" d="M139,-216C145,-216 151,-222 151,-228"/>
<polyline fill="none" stroke="#afd856" stroke-width="2" points="151,-228 151,-240 "/>
<path fill="none" stroke="#afd856" stroke-width="2" d="M151,-240C151,-246 145,-252 139,-252"/>
<text text-anchor="middle" x="105" y="-231.5" font-family="sans" font-size="10.00">markduplicates</text>
</g>
<!-- 3&#45;&gt;1 -->
<g id="edge6" class="edge"><title>3&#45;&gt;1</title>
<path fill="none" stroke="grey" stroke-width="2" d="M96.9083,-215.917C92.7439,-205.618 88.1082,-192.344 86,-180 83.3063,-164.228 83.3063,-159.772 86,-144 87.4988,-135.224 90.2751,-125.979 93.2513,-117.666"/>
<polygon fill="grey" stroke="grey" points="96.6126,-118.674 96.9083,-108.083 90.0727,-116.178 96.6126,-118.674"/>
</g>
<!-- 3&#45;&gt;2 -->
<g id="edge8" class="edge"><title>3&#45;&gt;2</title>
<path fill="none" stroke="grey" stroke-width="2" d="M114.841,-215.831C119.196,-207.792 124.41,-198.167 129.217,-189.292"/>
<polygon fill="grey" stroke="grey" points="132.341,-190.873 134.026,-180.413 126.186,-187.539 132.341,-190.873"/>
</g>
<!-- 4 -->
<g id="node5" class="node"><title>4</title>
<polyline fill="none" stroke="#56c9d8" stroke-width="2" points="198,-324 12,-324 "/>
<path fill="none" stroke="#56c9d8" stroke-width="2" d="M12,-324C6,-324 8.28967e-14,-318 6.63173e-14,-312"/>
<polyline fill="none" stroke="#56c9d8" stroke-width="2" points="6.63173e-14,-312 3.31587e-14,-300 "/>
<path fill="none" stroke="#56c9d8" stroke-width="2" d="M3.31587e-14,-300C1.65793e-14,-294 6,-288 12,-288"/>
<polyline fill="none" stroke="#56c9d8" stroke-width="2" points="12,-288 198,-288 "/>
<path fill="none" stroke="#56c9d8" stroke-width="2" d="M198,-288C204,-288 210,-294 210,-300"/>
<polyline fill="none" stroke="#56c9d8" stroke-width="2" points="210,-300 210,-312 "/>
<path fill="none" stroke="#56c9d8" stroke-width="2" d="M210,-312C210,-318 204,-324 198,-324"/>
<text text-anchor="middle" x="105" y="-303.5" font-family="sans" font-size="10.00">samtofastq_bwa_mergebamalignment</text>
</g>
<!-- 4&#45;&gt;3 -->
<g id="edge10" class="edge"><title>4&#45;&gt;3</title>
<path fill="none" stroke="grey" stroke-width="2" d="M105,-287.831C105,-280.131 105,-270.974 105,-262.417"/>
<polygon fill="grey" stroke="grey" points="108.5,-262.413 105,-252.413 101.5,-262.413 108.5,-262.413"/>
</g>
<!-- 5 -->
<g id="node6" class="node"><title>5</title>
<polyline fill="none" stroke="#70d856" stroke-width="2" points="136,-396 74,-396 "/>
<path fill="none" stroke="#70d856" stroke-width="2" d="M74,-396C68,-396 62,-390 62,-384"/>
<polyline fill="none" stroke="#70d856" stroke-width="2" points="62,-384 62,-372 "/>
<path fill="none" stroke="#70d856" stroke-width="2" d="M62,-372C62,-366 68,-360 74,-360"/>
<polyline fill="none" stroke="#70d856" stroke-width="2" points="74,-360 136,-360 "/>
<path fill="none" stroke="#70d856" stroke-width="2" d="M136,-360C142,-360 148,-366 148,-372"/>
<polyline fill="none" stroke="#70d856" stroke-width="2" points="148,-372 148,-384 "/>
<path fill="none" stroke="#70d856" stroke-width="2" d="M148,-384C148,-390 142,-396 136,-396"/>
<text text-anchor="middle" x="105" y="-375.5" font-family="sans" font-size="10.00">markadapters</text>
</g>
<!-- 5&#45;&gt;4 -->
<g id="edge12" class="edge"><title>5&#45;&gt;4</title>
<path fill="none" stroke="grey" stroke-width="2" d="M105,-359.831C105,-352.131 105,-342.974 105,-334.417"/>
<polygon fill="grey" stroke="grey" points="108.5,-334.413 105,-324.413 101.5,-334.413 108.5,-334.413"/>
</g>
<!-- 6 -->
<g id="node7" class="node"><title>6</title>
<polyline fill="none" stroke="#d85656" stroke-width="2" points="84,-468 38,-468 "/>
<path fill="none" stroke="#d85656" stroke-width="2" d="M38,-468C32,-468 26,-462 26,-456"/>
<polyline fill="none" stroke="#d85656" stroke-width="2" points="26,-456 26,-444 "/>
<path fill="none" stroke="#d85656" stroke-width="2" d="M26,-444C26,-438 32,-432 38,-432"/>
<polyline fill="none" stroke="#d85656" stroke-width="2" points="38,-432 84,-432 "/>
<path fill="none" stroke="#d85656" stroke-width="2" d="M84,-432C90,-432 96,-438 96,-444"/>
<polyline fill="none" stroke="#d85656" stroke-width="2" points="96,-444 96,-456 "/>
<path fill="none" stroke="#d85656" stroke-width="2" d="M96,-456C96,-462 90,-468 84,-468"/>
<text text-anchor="middle" x="61" y="-447.5" font-family="sans" font-size="10.00">revertsam</text>
</g>
<!-- 6&#45;&gt;5 -->
<g id="edge14" class="edge"><title>6&#45;&gt;5</title>
<path fill="none" stroke="grey" stroke-width="2" d="M72.1031,-431.831C77.0674,-423.708 83.0222,-413.964 88.4928,-405.012"/>
<polygon fill="grey" stroke="grey" points="91.5194,-406.771 93.7474,-396.413 85.5464,-403.121 91.5194,-406.771"/>
</g>
<!-- 7 -->
<g id="node8" class="node"><title>7</title>
<polyline fill="none" stroke="#d88d56" stroke-width="2" points="172,-468 126,-468 "/>
<path fill="none" stroke="#d88d56" stroke-width="2" d="M126,-468C120,-468 114,-462 114,-456"/>
<polyline fill="none" stroke="#d88d56" stroke-width="2" points="114,-456 114,-444 "/>
<path fill="none" stroke="#d88d56" stroke-width="2" d="M114,-444C114,-438 120,-432 126,-432"/>
<polyline fill="none" stroke="#d88d56" stroke-width="2" points="126,-432 172,-432 "/>
<path fill="none" stroke="#d88d56" stroke-width="2" d="M172,-432C178,-432 184,-438 184,-444"/>
<polyline fill="none" stroke="#d88d56" stroke-width="2" points="184,-444 184,-456 "/>
<path fill="none" stroke="#d88d56" stroke-width="2" d="M184,-456C184,-462 178,-468 172,-468"/>
<text text-anchor="middle" x="149" y="-447.5" font-family="sans" font-size="10.00">revertsam</text>
</g>
<!-- 7&#45;&gt;5 -->
<g id="edge16" class="edge"><title>7&#45;&gt;5</title>
<path fill="none" stroke="grey" stroke-width="2" d="M137.897,-431.831C132.933,-423.708 126.978,-413.964 121.507,-405.012"/>
<polygon fill="grey" stroke="grey" points="124.454,-403.121 116.253,-396.413 118.481,-406.771 124.454,-403.121"/>
</g>
<!-- 8 -->
<g id="node9" class="node"><title>8</title>
<polyline fill="none" stroke="#5692d8" stroke-width="2" points="124,-540 86,-540 "/>
<path fill="none" stroke="#5692d8" stroke-width="2" d="M86,-540C80,-540 74,-534 74,-528"/>
<polyline fill="none" stroke="#5692d8" stroke-width="2" points="74,-528 74,-516 "/>
<path fill="none" stroke="#5692d8" stroke-width="2" d="M74,-516C74,-510 80,-504 86,-504"/>
<polyline fill="none" stroke="#5692d8" stroke-width="2" points="86,-504 124,-504 "/>
<path fill="none" stroke="#5692d8" stroke-width="2" d="M124,-504C130,-504 136,-510 136,-516"/>
<polyline fill="none" stroke="#5692d8" stroke-width="2" points="136,-516 136,-528 "/>
<path fill="none" stroke="#5692d8" stroke-width="2" d="M136,-528C136,-534 130,-540 124,-540"/>
<text text-anchor="middle" x="105" y="-519.5" font-family="sans" font-size="10.00">download</text>
</g>
<!-- 8&#45;&gt;6 -->
<g id="edge18" class="edge"><title>8&#45;&gt;6</title>
<path fill="none" stroke="grey" stroke-width="2" d="M93.8969,-503.831C88.9326,-495.708 82.9778,-485.964 77.5072,-477.012"/>
<polygon fill="grey" stroke="grey" points="80.4536,-475.121 72.2526,-468.413 74.4806,-478.771 80.4536,-475.121"/>
</g>
<!-- 8&#45;&gt;7 -->
<g id="edge20" class="edge"><title>8&#45;&gt;7</title>
<path fill="none" stroke="grey" stroke-width="2" d="M116.103,-503.831C121.067,-495.708 127.022,-485.964 132.493,-477.012"/>
<polygon fill="grey" stroke="grey" points="135.519,-478.771 137.747,-468.413 129.546,-475.121 135.519,-478.771"/>
</g>
</g>
</svg>
